<svg id="visual" viewBox="0 0 900 10" width="900" height="10" xmlns="http://www.w3.org/2000/svg" xmlns:xlink="http://www.w3.org/1999/xlink" version="1.1"><rect x="0" y="0" width="900" height="10" fill="#ffffff"></rect><path d="M0 7L8.3 7C16.7 7 33.3 7 50 7C66.7 7 83.3 7 100 7.2C116.7 7.3 133.3 7.7 150 7.8C166.7 8 183.3 8 200 7.2C216.7 6.3 233.3 4.7 250 4.8C266.7 5 283.3 7 300 7.2C316.7 7.3 333.3 5.7 350 5.3C366.7 5 383.3 6 400 6.5C416.7 7 433.3 7 450 6.5C466.7 6 483.3 5 500 4.3C516.7 3.7 533.3 3.3 550 3.8C566.7 4.3 583.3 5.7 600 6C616.7 6.3 633.3 5.7 650 5.5C666.7 5.3 683.3 5.7 700 5.3C716.7 5 733.3 4 750 3.5C766.7 3 783.3 3 800 3.7C816.7 4.3 833.3 5.7 850 6.3C866.7 7 883.3 7 891.7 7L900 7L900 11L891.7 11C883.3 11 866.7 11 850 11C833.3 11 816.7 11 800 11C783.3 11 766.7 11 750 11C733.3 11 716.7 11 700 11C683.3 11 666.7 11 650 11C633.3 11 616.7 11 600 11C583.3 11 566.7 11 550 11C533.3 11 516.7 11 500 11C483.3 11 466.7 11 450 11C433.3 11 416.7 11 400 11C383.3 11 366.7 11 350 11C333.3 11 316.7 11 300 11C283.3 11 266.7 11 250 11C233.3 11 216.7 11 200 11C183.3 11 166.7 11 150 11C133.3 11 116.7 11 100 11C83.3 11 66.7 11 50 11C33.3 11 16.7 11 8.3 11L0 11Z" fill="#bad4e4" stroke-linecap="round" stroke-linejoin="miter"></path></svg>