<svg id="visual" viewBox="0 0 900 100" width="900" height="100" xmlns="http://www.w3.org/2000/svg" xmlns:xlink="http://www.w3.org/1999/xlink" version="1.1"><path d="M0 26L18.8 26.3C37.7 26.7 75.3 27.3 112.8 30.8C150.3 34.3 187.7 40.7 225.2 40C262.7 39.3 300.3 31.7 337.8 28.7C375.3 25.7 412.7 27.3 450.2 28C487.7 28.7 525.3 28.3 562.8 30C600.3 31.7 637.7 35.3 675.2 37.3C712.7 39.3 750.3 39.7 787.8 39.2C825.3 38.7 862.7 37.3 881.3 36.7L900 36L900 0L881.3 0C862.7 0 825.3 0 787.8 0C750.3 0 712.7 0 675.2 0C637.7 0 600.3 0 562.8 0C525.3 0 487.7 0 450.2 0C412.7 0 375.3 0 337.8 0C300.3 0 262.7 0 225.2 0C187.7 0 150.3 0 112.8 0C75.3 0 37.7 0 18.8 0L0 0Z" fill="#bad4e4"></path><path d="M0 52L18.8 50.3C37.7 48.7 75.3 45.3 112.8 47.8C150.3 50.3 187.7 58.7 225.2 57.8C262.7 57 300.3 47 337.8 43.3C375.3 39.7 412.7 42.3 450.2 43.2C487.7 44 525.3 43 562.8 45C600.3 47 637.7 52 675.2 54.3C712.7 56.7 750.3 56.3 787.8 57C825.3 57.7 862.7 59.3 881.3 60.2L900 61L900 34L881.3 34.7C862.7 35.3 825.3 36.7 787.8 37.2C750.3 37.7 712.7 37.3 675.2 35.3C637.7 33.3 600.3 29.7 562.8 28C525.3 26.3 487.7 26.7 450.2 26C412.7 25.3 375.3 23.7 337.8 26.7C300.3 29.7 262.7 37.3 225.2 38C187.7 38.7 150.3 32.3 112.8 28.8C75.3 25.3 37.7 24.7 18.8 24.3L0 24Z" fill="#c8dde9"></path><path d="M0 85L18.8 84.8C37.7 84.7 75.3 84.3 112.8 84.7C150.3 85 187.7 86 225.2 85.7C262.7 85.3 300.3 83.7 337.8 84.3C375.3 85 412.7 88 450.2 87.7C487.7 87.3 525.3 83.7 562.8 82.3C600.3 81 637.7 82 675.2 83.8C712.7 85.7 750.3 88.3 787.8 88.8C825.3 89.3 862.7 87.7 881.3 86.8L900 86L900 59L881.3 58.2C862.7 57.3 825.3 55.7 787.8 55C750.3 54.3 712.7 54.7 675.2 52.3C637.7 50 600.3 45 562.8 43C525.3 41 487.7 42 450.2 41.2C412.7 40.3 375.3 37.7 337.8 41.3C300.3 45 262.7 55 225.2 55.8C187.7 56.7 150.3 48.3 112.8 45.8C75.3 43.3 37.7 46.7 18.8 48.3L0 50Z" fill="#d5e4ef"></path><path d="M0 101L18.8 101C37.7 101 75.3 101 112.8 101C150.3 101 187.7 101 225.2 101C262.7 101 300.3 101 337.8 101C375.3 101 412.7 101 450.2 101C487.7 101 525.3 101 562.8 101C600.3 101 637.7 101 675.2 101C712.7 101 750.3 101 787.8 101C825.3 101 862.7 101 881.3 101L900 101L900 84L881.3 84.8C862.7 85.7 825.3 87.3 787.8 86.8C750.3 86.3 712.7 83.7 675.2 81.8C637.7 80 600.3 79 562.8 80.3C525.3 81.7 487.7 85.3 450.2 85.7C412.7 86 375.3 83 337.8 82.3C300.3 81.7 262.7 83.3 225.2 83.7C187.7 84 150.3 83 112.8 82.7C75.3 82.3 37.7 82.7 18.8 82.8L0 83Z" fill="#e1eaf3"></path></svg>