<svg id="visual" viewBox="0 0 900 100" width="900" height="100" xmlns="http://www.w3.org/2000/svg" xmlns:xlink="http://www.w3.org/1999/xlink" version="1.1"><path d="M0 18L18.8 17C37.7 16 75.3 14 112.8 12.8C150.3 11.7 187.7 11.3 225.2 11.8C262.7 12.3 300.3 13.7 337.8 14.7C375.3 15.7 412.7 16.3 450.2 16.7C487.7 17 525.3 17 562.8 17.3C600.3 17.7 637.7 18.3 675.2 17.7C712.7 17 750.3 15 787.8 15.5C825.3 16 862.7 19 881.3 20.5L900 22L900 0L881.3 0C862.7 0 825.3 0 787.8 0C750.3 0 712.7 0 675.2 0C637.7 0 600.3 0 562.8 0C525.3 0 487.7 0 450.2 0C412.7 0 375.3 0 337.8 0C300.3 0 262.7 0 225.2 0C187.7 0 150.3 0 112.8 0C75.3 0 37.7 0 18.8 0L0 0Z" fill="#e1eaf3"></path><path d="M0 65L18.8 61.7C37.7 58.3 75.3 51.7 112.8 49.5C150.3 47.3 187.7 49.7 225.2 51C262.7 52.3 300.3 52.7 337.8 50.5C375.3 48.3 412.7 43.7 450.2 45.2C487.7 46.7 525.3 54.3 562.8 54.5C600.3 54.7 637.7 47.3 675.2 44.2C712.7 41 750.3 42 787.8 46.3C825.3 50.7 862.7 58.3 881.3 62.2L900 66L900 20L881.3 18.5C862.7 17 825.3 14 787.8 13.5C750.3 13 712.7 15 675.2 15.7C637.7 16.3 600.3 15.7 562.8 15.3C525.3 15 487.7 15 450.2 14.7C412.7 14.3 375.3 13.7 337.8 12.7C300.3 11.7 262.7 10.3 225.2 9.8C187.7 9.3 150.3 9.7 112.8 10.8C75.3 12 37.7 14 18.8 15L0 16Z" fill="#d5e4ef"></path><path d="M0 88L18.8 86.5C37.7 85 75.3 82 112.8 79.7C150.3 77.3 187.7 75.7 225.2 74.7C262.7 73.7 300.3 73.3 337.8 73.7C375.3 74 412.7 75 450.2 76.8C487.7 78.7 525.3 81.3 562.8 83.5C600.3 85.7 637.7 87.3 675.2 87.8C712.7 88.3 750.3 87.7 787.8 87.7C825.3 87.7 862.7 88.3 881.3 88.7L900 89L900 64L881.3 60.2C862.7 56.3 825.3 48.7 787.8 44.3C750.3 40 712.7 39 675.2 42.2C637.7 45.3 600.3 52.7 562.8 52.5C525.3 52.3 487.7 44.7 450.2 43.2C412.7 41.7 375.3 46.3 337.8 48.5C300.3 50.7 262.7 50.3 225.2 49C187.7 47.7 150.3 45.3 112.8 47.5C75.3 49.7 37.7 56.3 18.8 59.7L0 63Z" fill="#c8dde9"></path><path d="M0 101L18.8 101C37.7 101 75.3 101 112.8 101C150.3 101 187.7 101 225.2 101C262.7 101 300.3 101 337.8 101C375.3 101 412.7 101 450.2 101C487.7 101 525.3 101 562.8 101C600.3 101 637.7 101 675.2 101C712.7 101 750.3 101 787.8 101C825.3 101 862.7 101 881.3 101L900 101L900 87L881.3 86.7C862.7 86.3 825.3 85.7 787.8 85.7C750.3 85.7 712.7 86.3 675.2 85.8C637.7 85.3 600.3 83.7 562.8 81.5C525.3 79.3 487.7 76.7 450.2 74.8C412.7 73 375.3 72 337.8 71.7C300.3 71.3 262.7 71.7 225.2 72.7C187.7 73.7 150.3 75.3 112.8 77.7C75.3 80 37.7 83 18.8 84.5L0 86Z" fill="#bad4e4"></path></svg>